<svg xmlns="http://www.w3.org/2000/svg" version="1.1" xmlns:xlink="http://www.w3.org/1999/xlink" viewBox="0 0 200 200"><rect width="200" height="200" fill="url('#gradient')"></rect><defs><linearGradient id="gradient" gradientTransform="rotate(176 0.5 0.5)"><stop offset="0%" stop-color="#e86464"></stop><stop offset="100%" stop-color="#000000"></stop></linearGradient></defs><g><g fill="#ffffff" transform="matrix(2.8225815001325207,0,0,2.8225815001325207,47.89323130763125,120.05881659320454)" stroke="#ffffff" stroke-width="0"><path d="M4.05-14.22L6.38-9.49L8.70-14.22L12.62-14.22L8.64-7.17L12.72 0L8.77 0L6.38-4.81L3.98 0L0.04 0L4.11-7.17L0.15-14.22L4.05-14.22ZM23.51-8.40L23.51-5.81Q23.51-2.93 22.21-1.37Q20.92 0.20 18.56 0.20L18.56 0.20Q16.19 0.20 14.89-1.38Q13.59-2.95 13.59-5.81L13.59-5.81L13.59-8.41Q13.59-11.29 14.89-12.85Q16.18-14.41 18.54-14.41Q20.91-14.41 22.21-12.84Q23.51-11.27 23.51-8.40L23.51-8.40ZM20.21-5.31L20.21-8.83Q20.21-10.36 19.81-11.12Q19.41-11.88 18.54-11.88L18.54-11.88Q17.70-11.88 17.31-11.17Q16.92-10.47 16.89-9.04L16.89-9.04L16.89-5.41Q16.89-3.82 17.29-3.08Q17.70-2.34 18.56-2.34L18.56-2.34Q19.40-2.34 19.80-3.06Q20.21-3.78 20.21-5.31L20.21-5.31ZM33.21 0L30.70-5.02L28.85-5.02L28.85 0L25.42 0L25.42-14.22L31.02-14.22Q33.54-14.22 34.97-13.10Q36.40-11.97 36.40-9.92L36.40-9.92Q36.40-8.44 35.80-7.46Q35.20-6.48 33.92-5.88L33.92-5.88L36.88-0.15L36.88 0L33.21 0ZM28.85-11.57L28.85-7.67L31.02-7.67Q31.99-7.67 32.49-8.18Q32.98-8.69 32.98-9.61Q32.98-10.53 32.48-11.05Q31.98-11.57 31.02-11.57L31.02-11.57L28.85-11.57Z"></path></g></g></svg>